<svg width="27" height="27" viewBox="0 0 27 27" fill="none" xmlns="http://www.w3.org/2000/svg">
<path fill-rule="evenodd" clip-rule="evenodd" d="M8.19643 10.6081C8.19643 8.43432 9.05998 6.34953 10.5971 4.8124C12.1342 3.27527 14.219 2.41172 16.3929 2.41172C18.5667 2.41172 20.6515 3.27527 22.1886 4.8124C23.7257 6.34953 24.5893 8.43432 24.5893 10.6081C24.5893 12.782 23.7257 14.8668 22.1886 16.4039C20.6515 17.941 18.5667 18.8046 16.3929 18.8046C14.219 18.8046 12.1342 17.941 10.5971 16.4039C9.05998 14.8668 8.19643 12.782 8.19643 10.6081ZM16.8673 21.2056C16.1844 23.1351 14.8418 24.7612 13.0766 25.797C11.3114 26.8329 9.23695 27.2118 7.2195 26.867C5.20206 26.5221 3.3713 25.4756 2.05036 23.9123C0.729425 22.3489 0.00324584 20.3691 5.45285e-07 18.3224C-0.000636278 16.5255 0.556538 14.7726 1.59461 13.3059C2.63269 11.8391 4.10047 10.7307 5.79536 10.1337C5.88719 8.07819 6.57489 6.09375 7.77465 4.42216C8.97442 2.75058 10.6345 1.46403 12.5525 0.719257C14.4706 -0.0255148 16.5638 -0.196351 18.5773 0.227562C20.5907 0.651475 22.4374 1.65184 23.8923 3.10676C25.3472 4.56169 26.3476 6.40837 26.7715 8.4218C27.1954 10.4352 27.0246 12.5285 26.2798 14.4466C25.535 16.3646 24.2485 18.0247 22.5769 19.2244C20.9053 20.4242 18.9209 21.1119 16.8654 21.2037M17.6059 4.94972C17.6059 4.63004 17.4789 4.32345 17.2529 4.0974C17.0268 3.87135 16.7203 3.74436 16.4006 3.74436C16.0809 3.74436 15.7743 3.87135 15.5483 4.0974C15.3222 4.32345 15.1952 4.63004 15.1952 4.94972V5.48972C14.4996 5.5706 13.8551 5.89549 13.3764 6.40667C12.8976 6.91784 12.6156 7.58219 12.5805 8.28166C12.5453 8.98112 12.7593 9.6704 13.1843 10.227C13.6094 10.7836 14.218 11.1715 14.9021 11.3217L17.2183 11.8289C17.4001 11.8706 17.5603 11.9775 17.6685 12.1294C17.7768 12.2813 17.8255 12.4676 17.8056 12.653C17.7856 12.8385 17.6983 13.0102 17.5602 13.1355C17.4221 13.2609 17.2428 13.3312 17.0563 13.3332H15.7449C15.5875 13.3331 15.4341 13.2843 15.3057 13.1935C15.1772 13.1026 15.08 12.9743 15.0274 12.826C14.9787 12.6718 14.8995 12.529 14.7945 12.4061C14.6895 12.2831 14.5608 12.1826 14.4161 12.1104C14.2714 12.0382 14.1136 11.9959 13.9523 11.9859C13.7909 11.976 13.6291 11.9986 13.4767 12.0524C13.3242 12.1063 13.1841 12.1902 13.0648 12.2993C12.9454 12.4084 12.8493 12.5404 12.782 12.6875C12.7147 12.8345 12.6777 12.9936 12.6731 13.1552C12.6686 13.3168 12.6966 13.4777 12.7556 13.6283C13.1297 14.6929 14.0574 15.4971 15.1952 15.6957V16.2627C15.1952 16.5824 15.3222 16.889 15.5483 17.115C15.7743 17.3411 16.0809 17.4681 16.4006 17.4681C16.7203 17.4681 17.0268 17.3411 17.2529 17.115C17.4789 16.889 17.6059 16.5824 17.6059 16.2627V15.6957C18.3295 15.5682 18.9864 15.1934 19.4644 14.6354C19.9424 14.0774 20.2119 13.3709 20.2269 12.6363C20.242 11.9017 20.0016 11.1847 19.5468 10.6076C19.092 10.0306 18.451 9.62926 17.7332 9.47222L15.4189 8.96886C15.2855 8.94105 15.1671 8.86463 15.0868 8.75445C15.0066 8.64428 14.9701 8.50819 14.9845 8.37263C14.9989 8.23707 15.0632 8.11171 15.1649 8.02089C15.2665 7.93006 15.3983 7.88026 15.5346 7.88115H17.0582C17.2159 7.87983 17.37 7.92809 17.4987 8.01911C17.6274 8.11012 17.7243 8.23929 17.7756 8.38836C17.8896 8.67953 18.1122 8.91503 18.3966 9.04513C18.6809 9.17523 19.0046 9.18976 19.2995 9.08564C19.5943 8.98152 19.8371 8.76691 19.9767 8.48712C20.1163 8.20732 20.1417 7.88424 20.0475 7.58608C19.8598 7.05646 19.5351 6.58601 19.1066 6.22254C18.6781 5.85906 18.161 5.61554 17.6079 5.51672L17.6059 4.94972Z" fill="#636363"/>
</svg>
