<svg width="27" height="27" viewBox="0 0 27 27" fill="none" xmlns="http://www.w3.org/2000/svg">
<path d="M14.436 24.5261C17.9527 23.8219 22.5 21.2918 22.5 14.7499C22.5 8.79751 18.1429 4.83301 15.0098 3.01164C14.3134 2.60664 13.5 3.13876 13.5 3.94314V5.99964C13.5 7.62189 12.8182 10.5829 10.9237 11.8148C9.95625 12.4436 8.91 11.502 8.793 10.3545L8.69625 9.41176C8.58375 8.31601 7.46775 7.65114 6.5925 8.31939C5.01863 9.51751 3.375 11.6213 3.375 14.7488C3.375 22.7486 9.32512 24.75 12.2996 24.75C12.4736 24.75 12.6551 24.7444 12.8441 24.7331C11.3749 24.6083 9 23.697 9 20.7495C9 18.4433 10.6819 16.8851 11.9599 16.1258C12.3041 15.9233 12.7057 16.1876 12.7057 16.587V17.2508C12.7057 17.757 12.9026 18.5501 13.3695 19.0924C13.8982 19.7066 14.6734 19.0631 14.7352 18.2554C14.7555 18.0011 15.012 17.8391 15.2325 17.9674C15.9536 18.3893 16.875 19.2893 16.875 20.7495C16.875 23.0535 15.6049 24.1133 14.436 24.5261Z" fill="#636363"/>
</svg>
